#!OML:ASF F:\VICON\USERDATA\INSTALL\Justin_Nancy\Justin_Nancy.ASF
:FULLY-SPECIFIED
:DEGREES
16
root 0.866662 17.4422 -31.3727 3.74937 -1.09788 1.55081
lowerback 3.32465 -4.27955 -7.00829
upperback -3.76006 -5.89881 6.04658
thorax -4.47295 -2.59331 10.7804
lowerneck -5.19498 0.374011 -15.665
upperneck 21.0609 1.50296 4.76992
head 7.19583 -0.100711 4.29211
rclavicle 3.86388e-014 -5.56597e-014
rhumerus -36.2871 5.67049 -81.4663
rradius 28.2817
rwrist 6.98378
rhand -16.4117 11.4822
rfingers 7.12502
rthumb 9.80299 -18.2696
lclavicle 3.86388e-014 -5.56597e-014
lhumerus -36.6329 16.5879 89.361
lradius 25.5755
lwrist -13.2906
lhand -10.6358 27.703
lfingers 7.12502
lthumb 15.3713 57.1116
rfemur -13.1141 3.57536 22.7044
rtibia 32.2132
rfoot -19.0431 -9.64867
rtoes 7.34993
lfemur -13.5987 -3.66791 -22.3941
ltibia 31.33
lfoot -18.3445 3.75325
ltoes 2.15748
17
root 0.856353 17.4413 -31.3706 3.70365 -0.892112 1.64465
lowerback 3.33842 -4.38237 -6.92355
upperback -3.85512 -6.03596 5.94207
thorax -4.56846 -2.65733 10.6267
lowerneck -4.64655 0.429797 -15.9547
upperneck 21.1791 1.49351 4.87903
head 7.13726 -0.128624 4.37206
rclavicle -5.37713e-014 -4.6118e-014
rhumerus -36.5341 5.67831 -81.5942
rradius 28.1566
rwrist 7.13839
rhand -16.5578 11.5808
rfingers 7.12502
rthumb 9.66203 -18.1776
lclavicle -5.37713e-014 -4.6118e-014
lhumerus -37.0551 16.5055 89.1701
lradius 25.8445
lwrist -13.1874
lhand -10.4155 28.1451
lfingers 7.12502
lthumb 15.5835 57.5373
rfemur -13.0192 3.42989 22.6478
rtibia 32.2132
rfoot -19.1776 -9.65758
rtoes 7.33379
lfemur -13.5624 -3.6509 -22.4475
ltibia 31.3642
lfoot -18.357 3.55421
ltoes 2.30954
18
root 0.847813 17.4395 -31.3692 3.66924 -0.91391 1.7365
lowerback 3.27794 -4.41248 -6.8055
upperback -3.88156 -6.07076 5.804
thorax -4.57909 -2.6794 10.4012
lowerneck -4.20793 0.566377 -16.1414
upperneck 21.0742 1.58287 5.07497
head 7.01052 -0.0820825 4.46602
rclavicle -1.85864e-014 -3.33958e-014
rhumerus -36.5583 5.56801 -81.7249
rradius 27.858
rwrist 7.31812
rhand -16.5241 12.3304
rfingers 7.12502
rthumb 9.69455 -17.4265
lclavicle -1.85864e-014 -3.33958e-014
lhumerus -37.2735 16.4556 88.9138
lradius 25.8932
lwrist -13.1388
lhand -10.3308 28.3354
lfingers 7.12502
lthumb 15.665 57.7212
rfemur -12.9816 3.33233 22.5771
rtibia 32.2182
rfoot -19.1505 -9.58739
rtoes 6.89161
lfemur -13.5127 -3.64733 -22.5289
ltibia 31.3623
lfoot -18.3248 3.62649
ltoes 2.27219
19
root 0.836914 17.4387 -31.363 3.64233 -1.15689 1.73098
lowerback 3.30251 -4.32775 -6.73001
upperback -3.94213 -5.9556 5.73349
thorax -4.69764 -2.61577 10.2841
lowerneck -3.90527 0.727518 -16.1393
upperneck 21.0319 1.72601 5.19035
head 6.92338 -0.00360425 4.50817
rclavicle 8.05078e-014 -1.90833e-014
rhumerus -36.8739 5.66698 -81.8744
rradius 27.9408
rwrist 7.14214
rhand -16.264 12.584
rfingers 7.12502
rthumb 9.94549 -17.161
lclavicle 8.05078e-014 -1.90833e-014
lhumerus -37.5079 16.3729 88.7271
lradius 25.7997
lwrist -12.913
lhand -10.3847 28.0735
lfingers 7.12502
lthumb 15.6131 57.4634
rfemur -12.9477 3.44653 22.6045
rtibia 32.213
rfoot -19.1308 -9.47282
rtoes 6.82318
lfemur -13.4633 -3.5836 -22.5069
ltibia 31.3707
lfoot -18.3395 3.81058
ltoes 2.33844
20
root 0.82828 17.4381 -31.3526 3.62162 -1.16608 1.67768
lowerback 3.31084 -4.26859 -6.67276
upperback -3.90562 -5.87384 5.69929
thorax -4.69017 -2.57893 10.209
lowerneck -4.02894 0.733935 -15.9535
upperneck 21.0805 1.7416 5.17414
head 6.95879 0.016013 4.4763
rclavicle 4.06515e-014 7.95139e-015
rhumerus -37.1055 5.64709 -81.9373
rradius 28.2127
rwrist 6.92977
rhand -16.1013 12.1345
rfingers 7.12502
rthumb 10.1024 -17.603
lclavicle 4.06515e-014 7.95139e-015
lhumerus -37.4957 16.2787 88.6398
lradius 25.6829
lwrist -12.834
lhand -10.5321 27.8885
lfingers 7.12502
lthumb 15.4712 57.2894
rfemur -12.8502 3.51265 22.6951
rtibia 32.1979
rfoot -19.1971 -9.50637
rtoes 7.25138
lfemur -13.4077 -3.80912 -22.425
ltibia 31.3972
lfoot -18.3246 3.9749
ltoes 2.57288
21
root 0.817911 17.4351 -31.3477 3.56807 -0.990491 1.59823
lowerback 3.30149 -4.14207 -6.84065
upperback -3.36119 -5.71304 5.7207
thorax -4.12442 -2.54507 10.2847
lowerneck -5.54672 0.306172 -15.3245
upperneck 21.2354 1.4296 4.78584
head 7.32138 -0.112724 4.24551
rclavicle 3.20665e-014 -5.24792e-014
rhumerus -36.0973 5.05572 -81.7519
rradius 28.1311
rwrist 7.04954
rhand -15.9732 11.9352
rfingers 7.12502
rthumb 10.2261 -17.7962
lclavicle 3.20665e-014 -5.24792e-014
lhumerus -36.3244 15.9334 88.9975
lradius 25.6033
lwrist -12.8576
lhand -10.5306 28.024
lfingers 7.12502
lthumb 15.4726 57.4248
rfemur -12.7255 3.49737 22.8429
rtibia 32.1846
rfoot -19.2381 -9.59301
rtoes 7.30126
lfemur -13.3827 -4.0198 -22.3009
ltibia 31.4539
lfoot -18.2665 4.03076
ltoes 2.15187
22
root 0.805004 17.4335 -31.3466 3.55715 -0.939867 1.56363
lowerback 3.02148 -3.80887 -6.38985
upperback -3.00643 -5.23807 5.30671
thorax -3.76857 -2.35651 9.50487
lowerneck -5.88907 -0.112367 -14.9059
upperneck 21.1774 0.811085 5.02761
head 7.42108 -0.348853 4.21626
rclavicle -4.37637e-015 1.74931e-014
rhumerus -35.6732 3.35685 -81.6687
rradius 27.8869
rwrist 7.53486
rhand -16.1249 12.3906
rfingers 7.12502
rthumb 10.0797 -17.348
lclavicle -4.37637e-015 1.74931e-014
lhumerus -35.6625 14.6134 89.0839
lradius 25.5593
lwrist -12.7747
lhand -10.403 28.0472
lfingers 7.12502
lthumb 15.5956 57.4384
rfemur -12.6925 3.45392 22.9342
rtibia 32.179
rfoot -19.2413 -9.59423
rtoes 7.21897
lfemur -13.4205 -4.07465 -22.2134
ltibia 31.5573
lfoot -18.2993 4.05434
ltoes 1.67353
23
root 0.793238 17.4293 -31.3415 3.53572 -1.08444 1.56407
lowerback 2.61796 -3.14416 -5.76268
upperback -2.44506 -4.31489 4.63638
thorax -3.23085 -1.96009 8.32438
lowerneck -6.80514 -0.795537 -14.0829
upperneck 21.2973 -0.16299 5.36851
head 7.71507 -0.713802 4.12992
rclavicle 1.34055e-014 -7.95139e-015
rhumerus -35.0587 0.748265 -81.5534
rradius 27.6373
rwrist 7.86484
rhand -16.4327 12.905
rfingers 7.12502
rthumb 9.78268 -16.8478
lclavicle 1.34055e-014 -7.95139e-015
lhumerus -34.5424 12.3788 89.2825
lradius 25.4219
lwrist -12.5992
lhand -10.4717 27.8057
lfingers 7.12502
lthumb 15.5294 57.2022
rfemur -12.6733 3.3956 22.9628
rtibia 32.1731
rfoot -19.2992 -9.47591
rtoes 6.92378
lfemur -13.4748 -3.99434 -22.1839
ltibia 31.7196
lfoot -18.33 4.11455
ltoes 1.0003
24
root 0.782819 17.4235 -31.3354 3.53791 -1.28349 1.33893
lowerback 3.14252 -4.04261 -6.9921
upperback -3.23964 -5.57346 5.95865
thorax -3.90097 -2.48543 10.6091
lowerneck -5.2107 0.572039 -15.4431
upperneck 21.1446 1.74686 4.81088
head 7.19699 0.0350708 4.28857
rclavicle 1.91082e-014 -1.74931e-014
rhumerus -36.0534 5.19162 -81.5299
rradius 27.6505
rwrist 7.23487
rhand -16.3436 13.2065
rfingers 7.12502
rthumb 9.86867 -16.5422
lclavicle 1.91082e-014 -1.74931e-014
lhumerus -36.7948 16.4071 88.8381
lradius 25.984
lwrist -12.7823
lhand -10.7863 27.2417
lfingers 7.12502
lthumb 15.2263 56.6614
rfemur -12.6639 3.37795 23.2263
rtibia 32.1574
rfoot -19.3421 -9.23822
rtoes 7.03159
lfemur -13.5349 -3.9792 -21.8976
ltibia 31.9228
lfoot -18.4589 4.21687
ltoes -0.199945
25
root 0.77223 17.4137 -31.331 3.53653 -1.24326 1.2528
lowerback 2.76319 -3.06437 -5.72969
upperback -2.50544 -4.20566 4.87499
thorax -3.38188 -1.89485 8.57427
lowerneck -6.70471 -0.626732 -14.2255
upperneck 21.3496 0.0783628 5.35935
head 7.69028 -0.613149 4.17082
rclavicle -2.11084e-014 1.59028e-014
rhumerus -35.3901 1.13924 -81.3968
rradius 27.6653
rwrist 7.80268
rhand -16.2001 13.3925
rfingers 7.12502
rthumb 10.0071 -16.3496
lclavicle -2.11084e-014 1.59028e-014
lhumerus -34.9665 12.7607 89.1864
lradius 25.5942
lwrist -12.353
lhand -10.5583 27.8034
lfingers 7.12502
lthumb 15.446 57.2063
rfemur -12.5812 3.29219 23.3675
rtibia 32.1695
rfoot -19.3266 -9.23264
rtoes 5.97023
lfemur -13.4958 -4.07327 -21.7368
ltibia 32.0729
lfoot -18.6608 4.09627
ltoes 0.0984315
26
root 0.760193 17.4053 -31.3269 3.52018 -1.14309 1.29472
lowerback 3.18238 -3.46901 -6.32226
upperback -2.91714 -4.78304 5.35984
thorax -3.86123 -2.12671 9.52064
lowerneck -5.9088 -0.12096 -14.8449
upperneck 21.3366 0.785132 5.09247
head 7.47813 -0.355884 4.23061
rclavicle -8.22802e-015 -1.90833e-014
rhumerus -36.0484 3.21622 -81.506
rradius 27.874
rwrist 7.26874
rhand -16.1175 13.1645
rfingers 7.12502
rthumb 10.0868 -16.5737
lclavicle -8.22802e-015 -1.90833e-014
lhumerus -36.0154 14.3923 88.9035
lradius 25.8023
lwrist -12.5614
lhand -10.3271 28.4035
lfingers 7.12502
lthumb 15.6687 57.7891
rfemur -12.4782 3.18064 23.3705
rtibia 32.1557
rfoot -19.3489 -9.26144
rtoes 5.18876
lfemur -13.4609 -4.13892 -21.7334
ltibia 32.2069
lfoot -18.7711 4.04153
ltoes 0.206768
27
root 0.746648 17.409 -31.3182 3.53189 -1.03077 1.42498
lowerback 3.05859 -2.92154 -5.7314
upperback -2.53471 -4.03313 4.61796
thorax -3.62985 -1.79796 8.31502
lowerneck -6.64356 -0.89006 -14.0568
upperneck 21.662 -0.311524 5.31206
head 7.82401 -0.80202 4.10179
rclavicle -4.58199e-014 3.18055e-014
rhumerus -35.7179 0.790208 -81.5512
rradius 27.8836
rwrist 7.52319
rhand -16.0787 13.233
rfingers 7.12502
rthumb 10.1243 -16.5034
lclavicle -4.58199e-014 3.18055e-014
lhumerus -35.0002 12.3738 88.8961
lradius 25.5095
lwrist -12.4926
lhand -10.5008 27.86
lfingers 7.12502
lthumb 15.5014 57.2586
rfemur -12.4705 3.17252 23.2859
rtibia 32.1103
rfoot -19.353 -9.34701
rtoes 5.69911
lfemur -13.5024 -4.2498 -21.8326
ltibia 32.315
lfoot -18.8023 4.09178
ltoes -0.00709384
28
root 0.735205 17.4084 -31.3041 3.50818 -0.95352 1.51312
lowerback 2.77467 -2.85182 -5.565
upperback -2.29484 -3.9268 4.37782
thorax -3.26276 -1.77512 7.92474
lowerneck -6.80272 -0.86283 -13.6486
upperneck 21.095 -0.335593 5.46561
head 7.65869 -0.744759 4.07219
rclavicle 2.18663e-014 6.36111e-015
rhumerus -35.4214 0.10939 -81.6264
rradius 27.7585
rwrist 7.78244
rhand -16.0807 13.333
rfingers 7.12502
rthumb 10.1223 -16.4035
lclavicle 2.18663e-014 6.36111e-015
lhumerus -34.6822 12.1445 88.6642
lradius 25.4488
lwrist -12.4682
lhand -10.531 27.2781
lfingers 7.12502
lthumb 15.4723 56.6789
rfemur -12.3554 3.11447 23.2397
rtibia 32.0537
rfoot -19.3911 -9.38439
rtoes 5.35405
lfemur -13.4987 -4.2216 -21.9077
ltibia 32.3693
lfoot -18.8078 4.09645
ltoes 0.489276
29
root 0.723948 17.4019 -31.2915 3.46518 -1.13912 1.4983
lowerback 2.68516 -3.16145 -5.86037
upperback -2.42569 -4.34458 4.67571
thorax -3.23362 -1.97278 8.42809
lowerneck -6.07368 -0.411333 -14.064
upperneck 20.8632 0.256586 5.34946
head 7.39491 -0.504236 4.13877
rclavicle 7.45443e-017 -1.59028e-015
rhumerus -35.5002 1.40935 -81.7859
rradius 27.5566
rwrist 7.72758
rhand -16.0416 13.158
rfingers 7.12502
rthumb 10.1601 -16.5767
lclavicle 7.45443e-017 -1.59028e-015
lhumerus -35.4507 13.7798 88.1497
lradius 25.7589
lwrist -12.6423
lhand -10.2995 27.6038
lfingers 7.12502
lthumb 15.6952 56.9873
rfemur -12.2106 3.17322 23.2821
rtibia 31.9776
rfoot -19.3189 -9.32046
rtoes 4.34848
lfemur -13.451 -4.19455 -21.8955
ltibia 32.4143
lfoot -18.7595 4.33536
ltoes 0.896025
